<?xml version="1.0"?>

<svg version="1.0" xmlns="http://www.w3.org/2000/svg" width="1053.000000pt" height="480.000000pt" viewBox="0 0 1053.000000 480.000000" preserveAspectRatio="xMidYMid meet">

<g transform="translate(0.000000,480.000000) scale(0.100000,-0.100000)" fill="#de0a14" stroke="none">
<path d="M1467 4466 c-59 -22 -110 -59 -141 -104 -28 -41 -69 -171 -177 -557&#xA;-28 -99 -79 -279 -114 -400 -35 -121 -227 -789 -425 -1485 -324 -1134 -361&#xA;-1270 -356 -1318 9 -98 70 -187 161 -235 31 -17 58 -22 120 -22 70 0 87 4 133&#xA;29 71 39 107 88 153 203 97 241 213 397 401 538 146 110 279 173 458 215 74&#xA;18 128 23 245 24 l149 1 42 -150 c90 -323 196 -681 210 -712 21 -44 77 -99&#xA;127 -125 59 -31 184 -31 243 -1 64 34 99 68 128 125 15 29 158 514 322 1088&#xA;285 996 296 1038 291 1105 -5 86 -30 138 -93 194 -143 126 -383 67 -447 -110&#xA;-9 -24 -82 -276 -163 -559 -80 -283 -149 -521 -153 -528 -4 -7 -173 565 -381&#xA;1295 -218 764 -383 1328 -398 1356 -47 87 -129 138 -232 144 -40 2 -79 -2&#xA;-103 -11z m162 -1556 c34 -118 110 -386 170 -595 l108 -380 -81 -8 c-199 -19&#xA;-415 -72 -584 -144 -46 -19 -85 -34 -86 -32 -2 2 20 85 49 184 29 99 112 389&#xA;185 645 72 256 138 489 147 519 10 35 18 49 23 40 4 -8 35 -111 69 -229z"></path>
<path d="M8051 2873 c-48 -25 -71 -74 -71 -151 0 -79 16 -112 90 -182 64 -60&#xA;86 -113 74 -175 -14 -75 -64 -67 -64 11 l0 44 -50 0 -50 0 0 -40 c0 -90 50&#xA;-150 125 -150 85 0 135 64 135 175 0 80 -24 128 -99 203 l-62 61 3 63 c3 60 4&#xA;63 28 63 22 0 26 -6 34 -52 l9 -53 43 0 44 0 -1 43 c-1 57 -20 107 -51 130&#xA;-36 27 -96 32 -137 10z"></path>
<path d="M3986 2577 c-27 -166 -51 -310 -54 -319 -4 -15 3 -18 41 -18 47 0 57&#xA;9 57 55 0 47 9 55 61 55 45 0 49 -2 49 -24 0 -13 3 -38 6 -55 6 -30 9 -31 55&#xA;-31 46 0 49 2 44 23 -5 21 -79 486 -92 575 l-6 42 -56 0 -56 0 -49 -303z m119&#xA;13 c21 -157 22 -150 -21 -150 l-37 0 7 58 c12 105 28 213 32 209 2 -2 11 -55&#xA;19 -117z"></path>
<path d="M4580 2560 l0 -320 50 0 50 0 0 140 c0 118 2 140 15 140 8 0 15 -3&#xA;15 -6 0 -4 40 -186 55 -251 5 -20 12 -23 50 -23 27 0 45 5 45 12 0 6 -16 73&#xA;-36 149 l-37 137 24 34 c20 28 25 47 27 123 3 81 1 93 -20 125 -33 49 -61 60&#xA;-155 60 l-83 0 0 -320z m160 211 c5 -11 10 -47 10 -80 0 -65 -17 -94 -53 -89&#xA;-19 3 -20 10 -19 93 0 50 1 91 1 93 1 1 12 2 26 2 14 0 29 -8 35 -19z"></path>
<path d="M5172 2838 c3 -43 3 -43 48 -48 30 -3 45 -10 46 -20 1 -8 2 -131 2&#xA;-272 l2 -258 45 0 45 0 0 274 0 275 48 3 47 3 3 43 3 42 -146 0 -146 0 3 -42z"></path>
<path d="M5790 2560 l0 -320 110 0 110 0 0 40 0 39 -62 3 -63 3 0 105 0 105&#xA;53 3 52 3 0 39 0 39 -52 3 -53 3 0 80 0 80 63 3 62 3 0 44 0 45 -110 0 -110 0&#xA;0 -320z"></path>
<path d="M6501 2813 c-30 -101 -147 -514 -155 -545 -6 -27 -5 -28 33 -28 l39&#xA;0 20 68 c12 37 51 173 87 302 36 129 68 243 71 253 4 14 -1 17 -35 17 l-40 0&#xA;-20 -67z"></path>
<path d="M6952 2603 c20 -153 40 -297 43 -321 l6 -43 62 3 62 3 8 60 c4 33 23&#xA;173 42 310 19 138 35 254 35 258 0 4 -20 7 -44 7 -52 0 -46 23 -77 -268 -13&#xA;-118 -26 -205 -29 -195 -4 10 -17 118 -30 241 l-23 222 -47 0 -46 0 38 -277z"></path>
<path d="M7550 2560 l0 -320 45 0 45 0 0 320 0 320 -45 0 -45 0 0 -320z"></path>
<path d="M8580 2603 c0 -245 2 -282 18 -313 21 -42 53 -60 109 -60 60 0 90 17&#xA;113 65 19 38 20 61 20 313 l0 272 -44 0 -45 0 -3 -270 c-3 -244 -5 -271 -21&#xA;-287 -18 -17 -19 -17 -38 6 -18 22 -19 41 -19 287 l0 264 -45 0 -45 0 0 -277z"></path>
<path d="M9265 2858 c-3 -13 -25 -147 -50 -298 -25 -151 -47 -285 -50 -297 -5&#xA;-22 -2 -23 45 -23 46 0 50 2 50 24 0 13 3 38 6 55 6 29 9 31 54 31 l48 0 7&#xA;-55 6 -55 50 0 c27 0 49 3 49 6 0 3 -22 145 -50 316 -27 171 -50 312 -50 314&#xA;0 2 -25 4 -55 4 -48 0 -55 -3 -60 -22z m77 -291 c8 -64 12 -120 9 -122 -2 -3&#xA;-20 -5 -39 -5 -33 0 -34 1 -29 33 3 17 11 76 18 130 6 54 15 95 19 90 4 -4 14&#xA;-61 22 -126z"></path>
<path d="M9815 2867 c-3 -7 -4 -149 -3 -317 l3 -305 123 -3 122 -3 0 41 0 40&#xA;-75 0 -75 0 0 280 0 280 -45 0 c-28 0 -48 -5 -50 -13z"></path>
</g>
</svg>